<svg width="311" height="56" viewBox="0 0 311 56" fill="none" xmlns="http://www.w3.org/2000/svg">
<rect width="311" height="56" fill="#F8F8F8"/>
<rect x="83.5" y="1" width="144" height="54" rx="8" fill="#F8F8F8"/>
<path d="M133.737 20.0742C134.44 19.2246 134.938 18.0674 134.938 16.8955C134.938 16.7344 134.923 16.5732 134.894 16.4414C133.752 16.4854 132.375 17.2031 131.554 18.1699C130.91 18.9023 130.309 20.0742 130.309 21.2461C130.309 21.4219 130.338 21.5977 130.353 21.6562C130.426 21.6709 130.544 21.6855 130.661 21.6855C131.686 21.6855 132.975 20.9971 133.737 20.0742ZM134.543 21.9346C132.829 21.9346 131.437 22.9746 130.544 22.9746C129.591 22.9746 128.346 21.9932 126.852 21.9932C124.025 21.9932 121.154 24.3369 121.154 28.7461C121.154 31.5 122.209 34.4004 123.527 36.2754C124.655 37.8574 125.636 39.1611 127.057 39.1611C128.463 39.1611 129.079 38.2236 130.822 38.2236C132.594 38.2236 132.99 39.1318 134.543 39.1318C136.081 39.1318 137.106 37.7256 138.073 36.334C139.157 34.7373 139.611 33.1846 139.626 33.1113C139.538 33.082 136.593 31.8809 136.593 28.5117C136.593 25.5967 138.908 24.293 139.04 24.1904C137.516 21.9932 135.187 21.9346 134.543 21.9346ZM148.016 39H151.417V32.7114H155.61C159.473 32.7114 162.083 30.1538 162.083 26.3569V26.3306C162.083 22.5205 159.473 19.9761 155.61 19.9761H148.016V39ZM154.779 22.7578C157.218 22.7578 158.642 24.063 158.642 26.3438V26.3701C158.642 28.6509 157.218 29.9692 154.779 29.9692H151.417V22.7578H154.779ZM167.676 39.2373C169.574 39.2373 171.103 38.4199 171.894 37.0225H172.119V39H175.362V29.1519C175.362 26.1064 173.279 24.3135 169.574 24.3135C166.146 24.3135 163.826 25.9219 163.51 28.3477L163.497 28.4663H166.595L166.608 28.4136C166.937 27.4644 167.913 26.9238 169.416 26.9238C171.183 26.9238 172.119 27.7148 172.119 29.1519V30.3911L168.414 30.6152C164.907 30.8262 162.943 32.3291 162.943 34.8999V34.9263C162.943 37.5498 164.934 39.2373 167.676 39.2373ZM166.186 34.7681V34.7417C166.186 33.5552 167.043 32.8828 168.875 32.7642L172.119 32.5532V33.7134C172.119 35.4272 170.655 36.7192 168.678 36.7192C167.228 36.7192 166.186 35.9941 166.186 34.7681ZM179.175 44.0625C182.365 44.0625 184.013 42.9155 185.252 39.3032L190.42 24.5903H186.966L183.618 35.8491H183.367L180.005 24.5903H176.419L181.574 39.0132L181.403 39.6724C181.047 40.9775 180.243 41.5312 178.898 41.5312C178.555 41.5312 178.186 41.5181 177.922 41.4917V44.0098C178.318 44.0493 178.779 44.0625 179.175 44.0625Z" fill="black"/>
</svg>
