<svg width="175" height="56" viewBox="0 0 175 56" fill="none" xmlns="http://www.w3.org/2000/svg">
<rect width="175" height="56" fill="#F8F8F8"/>
<rect x="15.5" y="1" width="144" height="54" rx="8" fill="#F8F8F8"/>
<path d="M65.942 21.7734C64.1988 21.7734 62.7926 22.8281 61.8844 22.8281C60.9322 22.8281 59.6578 21.832 58.149 21.832C55.2779 21.832 52.3629 24.2197 52.3629 28.6875C52.3629 31.4854 53.4469 34.4297 54.7799 36.3486C55.9078 37.9453 56.9185 39.2637 58.3541 39.2637C59.775 39.2637 60.4049 38.3262 62.1773 38.3262C63.9644 38.3262 64.3746 39.2344 65.942 39.2344C67.5094 39.2344 68.5494 37.8135 69.5308 36.4072C70.6148 34.7812 71.0836 33.1992 71.0982 33.126C71.0103 33.0967 68.022 31.8809 68.022 28.4531C68.022 25.4941 70.3658 24.1758 70.4976 24.0732C68.9595 21.832 66.6012 21.7734 65.942 21.7734ZM65.1363 19.8838C65.8394 19.0195 66.3375 17.8477 66.3375 16.6611C66.3375 16.5 66.3228 16.3389 66.2935 16.207C65.151 16.251 63.7447 16.9688 62.9097 17.9502C62.2652 18.6973 61.65 19.8838 61.65 21.0703C61.65 21.2461 61.6793 21.4365 61.6939 21.4951C61.7672 21.5098 61.8844 21.5244 62.0015 21.5244C63.0416 21.5244 64.3599 20.8213 65.1363 19.8838ZM83.2095 19.9761V39H86.6108V32.7642H90.7373C94.5869 32.7642 97.2764 30.1802 97.2764 26.4097C97.2764 22.5732 94.6792 19.9761 90.8823 19.9761H83.2095ZM86.6108 22.8237H89.9858C92.438 22.8237 93.8223 24.0762 93.8223 26.4097C93.8223 28.6772 92.3984 29.9429 89.9727 29.9429H86.6108V22.8237ZM103.871 36.6665C102.421 36.6665 101.379 35.9414 101.379 34.7285C101.379 33.5552 102.236 32.896 104.069 32.7773L107.325 32.5664V33.7134C107.325 35.3877 105.849 36.6665 103.871 36.6665ZM102.909 39.2373C104.794 39.2373 106.376 38.4199 107.18 37.0225H107.404V39H110.555V29.1519C110.555 26.0933 108.472 24.2871 104.768 24.2871C101.34 24.2871 98.9536 25.9087 98.6899 28.4531H101.775C102.078 27.4775 103.106 26.9502 104.609 26.9502C106.376 26.9502 107.325 27.7412 107.325 29.1519V30.3647L103.607 30.5889C100.101 30.7998 98.1362 32.3027 98.1362 34.9131C98.1362 37.5498 100.127 39.2373 102.909 39.2373ZM114.408 44.2339C117.638 44.2339 119.18 43.0474 120.406 39.4614L125.614 24.5771H122.16L118.798 35.8359H118.574L115.199 24.5771H111.613L116.768 39.0659L116.596 39.6987C116.174 41.0303 115.396 41.5576 114.012 41.5576C113.788 41.5576 113.3 41.5444 113.116 41.5049V44.1812C113.327 44.2207 114.21 44.2339 114.408 44.2339Z" fill="black"/>
</svg>
