<svg width="12" height="12" viewBox="0 0 12 12" fill="none" xmlns="http://www.w3.org/2000/svg">
<path d="M1.58654 11.3489C1.32843 11.608 0.909018 11.6084 0.650407 11.3498C0.391797 11.0912 0.392204 10.6717 0.651316 10.4136L10.693 0.410889L11.5893 1.30718L1.58654 11.3489Z" fill="black"/>
<path d="M11.8337 8.10725C11.8337 8.48975 11.5236 8.79984 11.1411 8.79984C10.7586 8.79984 10.4485 8.48976 10.4485 8.10725V2.75971C10.4485 2.09254 9.90762 1.55169 9.24044 1.55169H3.89291C3.5104 1.55169 3.20032 1.2416 3.20032 0.859095C3.20032 0.476588 3.5104 0.166504 3.89291 0.166504H10.3948C11.1894 0.166504 11.8337 0.810716 11.8337 1.60539V8.10725Z" fill="black"/>
</svg>
