<svg width="161" height="56" viewBox="0 0 161 56" fill="none" xmlns="http://www.w3.org/2000/svg">
<rect width="161" height="56" rx="28" fill="#F8F8F8"/>
<path d="M25.7309 34H27.2989C27.4109 34 27.4909 33.92 27.4909 33.808V24.752C27.4909 24.688 27.5389 24.656 27.5869 24.656H31.4749C31.5389 24.656 31.5709 24.704 31.5709 24.752V33.808C31.5709 33.92 31.6509 34 31.7629 34H33.3469C33.4589 34 33.5389 33.92 33.5389 33.808V22.992C33.5389 22.88 33.4589 22.8 33.3469 22.8H25.7309C25.6189 22.8 25.5389 22.88 25.5389 22.992V33.808C25.5389 33.92 25.6189 34 25.7309 34ZM39.1292 34.208C41.4492 34.208 43.1132 32.384 43.1132 30.176C43.1132 27.968 41.4492 26.144 39.1292 26.144C36.8092 26.144 35.1452 27.968 35.1452 30.176C35.1452 32.384 36.8092 34.208 39.1292 34.208ZM39.1292 32.432C37.8812 32.432 37.0812 31.392 37.0812 30.176C37.0812 28.96 37.8812 27.92 39.1292 27.92C40.3772 27.92 41.1772 28.96 41.1772 30.176C41.1772 31.392 40.3772 32.432 39.1292 32.432ZM44.2081 30.176C44.2081 32.56 45.7441 34.208 48.0801 34.208C49.3921 34.208 50.7361 33.664 51.3121 32.32C51.3601 32.208 51.3281 32.128 51.2161 32.064L49.9841 31.424C49.8721 31.36 49.7761 31.408 49.7121 31.52C49.3601 32.128 48.8481 32.432 48.0801 32.432C46.8641 32.432 46.1441 31.488 46.1441 30.176C46.1441 28.864 46.8641 27.92 48.0801 27.92C48.8481 27.92 49.3601 28.224 49.7121 28.832C49.7761 28.944 49.8721 28.992 49.9841 28.928L51.2161 28.288C51.3281 28.224 51.3601 28.144 51.3121 28.032C50.7361 26.688 49.3921 26.144 48.0801 26.144C45.7441 26.144 44.2081 27.792 44.2081 30.176ZM58.4127 26.512L56.7647 29.104C56.7007 29.2 56.6687 29.136 56.6367 29.104L55.0047 26.512C54.9567 26.432 54.8607 26.384 54.7807 26.384H53.0367C52.9247 26.384 52.8447 26.464 52.8447 26.576V33.808C52.8447 33.92 52.9247 34 53.0367 34H54.5407C54.6527 34 54.7327 33.92 54.7327 33.808V29.52C54.7327 29.44 54.7967 29.408 54.8447 29.488L56.4607 31.84C56.6207 32.08 56.8127 32.08 56.9727 31.84L58.5727 29.488C58.6207 29.408 58.6847 29.44 58.6847 29.52V33.808C58.6847 33.92 58.7647 34 58.8767 34H60.3807C60.4927 34 60.5727 33.92 60.5727 33.808V26.576C60.5727 26.464 60.4927 26.384 60.3807 26.384H58.6367C58.5567 26.384 58.4607 26.432 58.4127 26.512ZM66.1136 34.208C68.4336 34.208 70.0976 32.384 70.0976 30.176C70.0976 27.968 68.4336 26.144 66.1136 26.144C63.7936 26.144 62.1296 27.968 62.1296 30.176C62.1296 32.384 63.7936 34.208 66.1136 34.208ZM66.1136 32.432C64.8656 32.432 64.0656 31.392 64.0656 30.176C64.0656 28.96 64.8656 27.92 66.1136 27.92C67.3616 27.92 68.1616 28.96 68.1616 30.176C68.1616 31.392 67.3616 32.432 66.1136 32.432ZM74.7653 33.808V28.192C74.7653 28.128 74.7973 28.096 74.8613 28.096H76.7653C76.8773 28.096 76.9573 28.016 76.9573 27.904V26.576C76.9573 26.464 76.8773 26.384 76.7653 26.384H70.8773C70.7653 26.384 70.6853 26.464 70.6853 26.576V27.904C70.6853 28.016 70.7653 28.096 70.8773 28.096H72.7653C72.8293 28.096 72.8613 28.128 72.8613 28.192V33.808C72.8613 33.92 72.9413 34 73.0533 34H74.5733C74.6853 34 74.7653 33.92 74.7653 33.808ZM80.1077 36.96V33.568C80.1077 33.488 80.1557 33.44 80.2677 33.536C80.7317 33.968 81.4197 34.224 82.2997 34.224C84.4117 34.224 85.9637 32.608 85.9637 30.208C85.9637 27.776 84.4117 26.16 82.2997 26.16C81.3717 26.16 80.6517 26.464 80.1717 26.96C80.0917 27.04 80.0277 27.024 80.0277 26.928V26.576C80.0277 26.464 79.9477 26.384 79.8357 26.384H78.3957C78.2837 26.384 78.2037 26.464 78.2037 26.576V36.96C78.2037 37.072 78.2837 37.152 78.3957 37.152H79.9157C80.0277 37.152 80.1077 37.072 80.1077 36.96ZM81.8997 32.528C81.1157 32.528 80.4917 32.144 80.1877 31.616C80.1237 31.504 80.1077 31.408 80.1077 31.312V29.072C80.1077 28.976 80.1237 28.88 80.1877 28.768C80.4917 28.24 81.1157 27.856 81.8997 27.856C83.2277 27.856 84.0277 28.816 84.0277 30.192C84.0277 31.568 83.2277 32.528 81.8997 32.528ZM91.0034 34.224C91.9954 34.224 93.0354 33.84 93.8994 33.072C93.9954 32.976 94.0114 32.88 93.9314 32.784L93.1154 31.776C93.0354 31.664 92.9394 31.648 92.8434 31.744C92.3634 32.224 91.7394 32.512 91.0034 32.512C90.0434 32.512 89.2754 31.936 89.0514 30.896C89.0194 30.736 89.0834 30.672 89.1954 30.672H94.3314C94.4274 30.672 94.4914 30.608 94.5074 30.496C94.5234 30.352 94.5394 30.176 94.5394 30.064C94.5394 27.84 92.9714 26.16 90.7794 26.16C88.7314 26.16 87.0674 27.776 87.0674 30.176C87.0674 32.688 88.7954 34.224 91.0034 34.224ZM92.3314 29.296H89.2754C89.1154 29.296 89.0834 29.232 89.1314 29.104C89.3714 28.352 89.9794 27.872 90.7794 27.872C91.6274 27.872 92.2034 28.32 92.4434 29.088C92.4914 29.232 92.4594 29.296 92.3314 29.296ZM99.1872 33.808V28.192C99.1872 28.128 99.2192 28.096 99.2832 28.096H101.187C101.299 28.096 101.379 28.016 101.379 27.904V26.576C101.379 26.464 101.299 26.384 101.187 26.384H95.2992C95.1872 26.384 95.1072 26.464 95.1072 26.576V27.904C95.1072 28.016 95.1872 28.096 95.2992 28.096H97.1872C97.2512 28.096 97.2832 28.128 97.2832 28.192V33.808C97.2832 33.92 97.3632 34 97.4752 34H98.9952C99.1072 34 99.1872 33.92 99.1872 33.808ZM102.834 34H105.906C107.762 34 108.978 32.976 108.978 31.28C108.978 29.584 107.762 28.544 105.906 28.544H104.626C104.562 28.544 104.53 28.496 104.53 28.448V26.576C104.53 26.464 104.45 26.384 104.338 26.384H102.834C102.722 26.384 102.642 26.464 102.642 26.576V33.808C102.642 33.92 102.722 34 102.834 34ZM104.626 30.176H105.778C106.53 30.176 107.058 30.576 107.058 31.28C107.058 32 106.53 32.384 105.778 32.384H104.626C104.562 32.384 104.53 32.352 104.53 32.288V30.272C104.53 30.208 104.562 30.176 104.626 30.176ZM113.63 34H116.99C118.574 34 119.566 33.184 119.566 31.856C119.566 30.896 118.878 30.352 118.43 30.144C118.334 30.096 118.35 30.064 118.43 30.016C118.814 29.776 119.358 29.136 119.358 28.368C119.358 27.216 118.462 26.384 116.83 26.384H113.63C113.518 26.384 113.438 26.464 113.438 26.576V33.808C113.438 33.92 113.518 34 113.63 34ZM115.422 27.824H116.574C117.118 27.824 117.438 28.16 117.438 28.688C117.438 29.152 117.07 29.536 116.494 29.536H115.422C115.358 29.536 115.326 29.488 115.326 29.44V27.92C115.326 27.856 115.358 27.824 115.422 27.824ZM115.422 30.816H116.67C117.262 30.816 117.63 31.168 117.63 31.664C117.63 32.192 117.294 32.56 116.67 32.56H115.422C115.358 32.56 115.326 32.528 115.326 32.464V30.912C115.326 30.848 115.39 30.816 115.422 30.816ZM120.708 30.176C120.708 32.56 122.244 34.208 124.58 34.208C125.892 34.208 127.236 33.664 127.812 32.32C127.86 32.208 127.828 32.128 127.716 32.064L126.484 31.424C126.372 31.36 126.276 31.408 126.212 31.52C125.86 32.128 125.348 32.432 124.58 32.432C123.364 32.432 122.644 31.488 122.644 30.176C122.644 28.864 123.364 27.92 124.58 27.92C125.348 27.92 125.86 28.224 126.212 28.832C126.276 28.944 126.372 28.992 126.484 28.928L127.716 28.288C127.828 28.224 127.86 28.144 127.812 28.032C127.236 26.688 125.892 26.144 124.58 26.144C122.244 26.144 120.708 27.792 120.708 30.176ZM132.769 34.224C133.761 34.224 134.801 33.84 135.665 33.072C135.761 32.976 135.777 32.88 135.697 32.784L134.881 31.776C134.801 31.664 134.705 31.648 134.609 31.744C134.129 32.224 133.505 32.512 132.769 32.512C131.809 32.512 131.041 31.936 130.817 30.896C130.785 30.736 130.849 30.672 130.961 30.672H136.097C136.193 30.672 136.257 30.608 136.273 30.496C136.289 30.352 136.305 30.176 136.305 30.064C136.305 27.84 134.737 26.16 132.545 26.16C130.497 26.16 128.833 27.776 128.833 30.176C128.833 32.688 130.561 34.224 132.769 34.224ZM134.097 29.296H131.041C130.881 29.296 130.849 29.232 130.897 29.104C131.137 28.352 131.745 27.872 132.545 27.872C133.393 27.872 133.969 28.32 134.209 29.088C134.257 29.232 134.225 29.296 134.097 29.296Z" fill="black"/>
</svg>
