<svg width="73" height="28" viewBox="0 0 73 28" fill="none" xmlns="http://www.w3.org/2000/svg">
<path d="M34.1087 13.6178V21.8745H31.4707V1.48535H38.4642C40.2366 1.48535 41.748 2.07219 42.9846 3.24586C44.2486 4.41953 44.8807 5.8525 44.8807 7.54477C44.8807 9.27798 44.2486 10.7109 42.9846 11.871C41.7617 13.031 40.2504 13.6042 38.4642 13.6042H34.1087V13.6178ZM34.1087 3.99646V11.1067H38.5192C39.5634 11.1067 40.4427 10.7519 41.1297 10.0559C41.8304 9.35986 42.1877 8.51373 42.1877 7.55841C42.1877 6.61675 41.8304 5.78426 41.1297 5.08825C40.4427 4.36494 39.5771 4.01011 38.5192 4.01011H34.1087V3.99646Z" fill="#5F6368"/>
<path d="M51.7793 7.46387C53.7303 7.46387 55.2692 7.98246 56.3958 9.01966C57.5225 10.0569 58.0858 11.4762 58.0858 13.2776V21.8755H55.5715V19.9375H55.4615C54.3761 21.5343 52.9197 22.3258 51.106 22.3258C49.5535 22.3258 48.2619 21.8754 47.2177 20.9611C46.1735 20.0467 45.6514 18.914 45.6514 17.5492C45.6514 16.1026 46.201 14.9562 47.3001 14.1101C48.3993 13.2503 49.8695 12.8273 51.6969 12.8273C53.2632 12.8273 54.5547 13.1139 55.5577 13.6871V13.0866C55.5577 12.1722 55.2005 11.4079 54.4723 10.7665C53.7441 10.1251 52.8922 9.81121 51.9167 9.81121C50.4465 9.81121 49.2787 10.4253 48.4268 11.6672L46.1048 10.2206C47.3826 8.37824 49.2787 7.46387 51.7793 7.46387ZM48.3718 17.5902C48.3718 18.2726 48.6604 18.8457 49.2512 19.2961C49.8282 19.7465 50.5152 19.9785 51.2984 19.9785C52.4113 19.9785 53.4006 19.569 54.2662 18.7502C55.1318 17.9314 55.5715 16.9761 55.5715 15.8706C54.7471 15.2292 53.6067 14.9017 52.1365 14.9017C51.0648 14.9017 50.1717 15.161 49.4573 15.6659C48.7291 16.1982 48.3718 16.8396 48.3718 17.5902Z" fill="#5F6368"/>
<path d="M72.4302 7.91211L63.6368 28.001H60.9163L64.1863 20.9726L58.3882 7.91211H61.2598L65.4367 17.9292H65.4916L69.5586 7.91211H72.4302Z" fill="#5F6368"/>
<path d="M23.6164 11.955C23.6164 11.1006 23.5395 10.2832 23.3966 9.49707H12.3389V14.0007L18.7072 14.0021C18.4489 15.5005 17.6177 16.7779 16.344 17.6295V20.5514H20.1348C22.3483 18.5166 23.6164 15.5087 23.6164 11.955Z" fill="#4285F4"/>
<path d="M16.3456 17.6291C15.2904 18.336 13.9316 18.7495 12.3419 18.7495C9.27105 18.7495 6.666 16.6942 5.73308 13.9238H1.82275V16.9372C3.76005 20.7557 7.74182 23.376 12.3419 23.376C15.5213 23.376 18.1923 22.3374 20.1364 20.5496L16.3456 17.6291Z" fill="#34A853"/>
<path d="M5.3641 11.6915C5.3641 10.9136 5.49462 10.1617 5.73232 9.45474V6.44141H1.822C1.02097 8.0204 0.570312 9.80274 0.570312 11.6915C0.570312 13.5803 1.02235 15.3627 1.822 16.9417L5.73232 13.9283C5.49462 13.2214 5.3641 12.4694 5.3641 11.6915Z" fill="#FABB05"/>
<path d="M12.3419 4.62644C14.0772 4.62644 15.6312 5.2201 16.8581 6.38013L20.2175 3.04608C18.1771 1.15866 15.5171 0 12.3419 0C7.7432 0 3.76005 2.62029 1.82275 6.43881L5.73308 9.45214C6.666 6.68173 9.27105 4.62644 12.3419 4.62644Z" fill="#E94235"/>
</svg>
