<svg width="311" height="56" viewBox="0 0 311 56" fill="none" xmlns="http://www.w3.org/2000/svg">
<rect width="311" height="56" fill="#F8F8F8"/>
<path d="M153.109 27.6178V35.8745H150.471V15.4854H157.464C159.237 15.4854 160.748 16.0722 161.985 17.2459C163.249 18.4195 163.881 19.8525 163.881 21.5448C163.881 23.278 163.249 24.7109 161.985 25.871C160.762 27.031 159.25 27.6042 157.464 27.6042H153.109V27.6178ZM153.109 17.9965V25.1067H157.519C158.563 25.1067 159.443 24.7519 160.13 24.0559C160.83 23.3599 161.188 22.5137 161.188 21.5584C161.188 20.6167 160.83 19.7843 160.13 19.0882C159.443 18.3649 158.577 18.0101 157.519 18.0101H153.109V17.9965Z" fill="#5F6368"/>
<path d="M170.779 21.4639C172.73 21.4639 174.269 21.9825 175.396 23.0197C176.523 24.0569 177.086 25.4762 177.086 27.2776V35.8755H174.571V33.9375H174.462C173.376 35.5343 171.92 36.3258 170.106 36.3258C168.553 36.3258 167.262 35.8754 166.218 34.9611C165.173 34.0467 164.651 32.914 164.651 31.5492C164.651 30.1026 165.201 28.9562 166.3 28.1101C167.399 27.2503 168.869 26.8273 170.697 26.8273C172.263 26.8273 173.555 27.1139 174.558 27.6871V27.0866C174.558 26.1722 174.2 25.4079 173.472 24.7665C172.744 24.1251 171.892 23.8112 170.917 23.8112C169.447 23.8112 168.279 24.4253 167.427 25.6672L165.105 24.2206C166.383 22.3782 168.279 21.4639 170.779 21.4639ZM167.372 31.5902C167.372 32.2726 167.66 32.8457 168.251 33.2961C168.828 33.7465 169.515 33.9785 170.298 33.9785C171.411 33.9785 172.401 33.569 173.266 32.7502C174.132 31.9314 174.571 30.9761 174.571 29.8706C173.747 29.2292 172.607 28.9017 171.137 28.9017C170.065 28.9017 169.172 29.161 168.457 29.6659C167.729 30.1982 167.372 30.8396 167.372 31.5902Z" fill="#5F6368"/>
<path d="M191.43 21.9121L182.637 42.001H179.916L183.186 34.9726L177.388 21.9121H180.26L184.437 31.9292H184.492L188.559 21.9121H191.43Z" fill="#5F6368"/>
<path d="M142.616 25.955C142.616 25.1006 142.539 24.2832 142.397 23.4971H131.339V28.0007L137.707 28.0021C137.449 29.5005 136.618 30.7779 135.344 31.6295V34.5514H139.135C141.348 32.5166 142.616 29.5087 142.616 25.955Z" fill="#4285F4"/>
<path d="M135.346 31.6291C134.29 32.336 132.932 32.7495 131.342 32.7495C128.271 32.7495 125.666 30.6942 124.733 27.9238H120.823V30.9372C122.76 34.7557 126.742 37.376 131.342 37.376C134.521 37.376 137.192 36.3374 139.136 34.5496L135.346 31.6291Z" fill="#34A853"/>
<path d="M124.364 25.6915C124.364 24.9136 124.495 24.1617 124.732 23.4547V20.4414H120.822C120.021 22.0204 119.57 23.8027 119.57 25.6915C119.57 27.5803 120.022 29.3627 120.822 30.9417L124.732 27.9283C124.495 27.2214 124.364 26.4694 124.364 25.6915Z" fill="#FABB05"/>
<path d="M131.342 18.6264C133.077 18.6264 134.631 19.2201 135.858 20.3801L139.217 17.0461C137.177 15.1587 134.517 14 131.342 14C126.743 14 122.76 16.6203 120.823 20.4388L124.733 23.4521C125.666 20.6817 128.271 18.6264 131.342 18.6264Z" fill="#E94235"/>
</svg>
