<svg width="17" height="13" viewBox="0 0 17 13" fill="none" xmlns="http://www.w3.org/2000/svg">
  <path d="M8.21875 7.23438C8.52344 7.23438 8.80468 7.09376 9.13281 6.76562L15.5703 0.398437C15.2891 0.132813 14.7813 0 14.0547 0H2.14844C1.52344 0 1.07812 0.125 0.828125 0.359375L7.29687 6.76562C7.61718 7.09376 7.90625 7.23438 8.21875 7.23438ZM0.195312 11.6094L5.4375 6.40625L0.179688 1.21876C0.0625005 1.4375 0 1.80468 0 2.32812V10.4922C0 11.0156 0.0625005 11.3906 0.195312 11.6094ZM16.2266 11.5938C16.3438 11.375 16.4063 11.0078 16.4063 10.4922V2.32812C16.4063 1.82032 16.3438 1.45312 16.2266 1.24218L10.9922 6.40625L16.2266 11.5938ZM2.35937 12.8125H14.2657C14.8907 12.8125 15.3282 12.6953 15.5782 12.4532L10.2266 7.14844L9.75 7.63281C9.24218 8.11718 8.75781 8.35157 8.21875 8.35157C7.67187 8.35157 7.19531 8.11718 6.6875 7.63281L6.20312 7.14844L0.859375 12.4453C1.14844 12.6875 1.64844 12.8125 2.35937 12.8125Z" fill="#717171"/>
</svg>

