<svg width="17" height="17" viewBox="0 0 17 17" fill="none" xmlns="http://www.w3.org/2000/svg">
<mask id="mask0_661_8105" style="mask-type:alpha" maskUnits="userSpaceOnUse" x="0" y="0" width="17" height="17">
<path fill-rule="evenodd" clip-rule="evenodd" d="M16.8204 8.41016V7.35243e-07H8.41025L7.35245e-07 0L0 16.8204L16.8204 16.8204V8.41025L8.41025 16.8204L5.06777e-05 8.4102L8.41025 7.35243e-07L16.8204 8.41016Z" fill="white"/>
</mask>
<g mask="url(#mask0_661_8105)">
<path d="M16.8204 8.4102C16.8204 9.51464 16.6029 10.6083 16.1802 11.6286C15.7576 12.649 15.1381 13.5762 14.3571 14.3571C13.5762 15.1381 12.649 15.7576 11.6286 16.1802C10.6083 16.6029 9.51464 16.8204 8.4102 16.8204V8.4102H16.8204Z" fill="#DE5C6D"/>
<path d="M-2.97823e-05 8.41011C-2.96858e-05 7.30567 0.217507 6.21204 0.640159 5.19167C1.06281 4.17129 1.6823 3.24416 2.46326 2.4632C3.24422 1.68224 4.17136 1.06275 5.19173 0.640098C6.2121 0.217446 7.30573 -9.04772e-05 8.41017 -9.03806e-05L8.41017 8.41011L-2.97823e-05 8.41011Z" fill="#DE5C6D"/>
<path d="M8.41017 16.8204C7.30573 16.8204 6.2121 16.6029 5.19173 16.1802C4.17135 15.7576 3.24422 15.1381 2.46326 14.3571C1.6823 13.5762 1.06281 12.649 0.640159 11.6286C0.217508 10.6083 -2.90261e-05 9.51464 -2.89779e-05 8.4102L8.41017 8.4102L8.41017 16.8204Z" fill="#F6D7C4"/>
<path d="M8.41014 -9.23572e-05C9.51458 -9.22124e-05 10.6082 0.217445 11.6286 0.640096C12.649 1.06275 13.5761 1.68224 14.3571 2.4632C15.138 3.24416 15.7575 4.17129 16.1802 5.19167C16.6028 6.21204 16.8203 7.30567 16.8203 8.41011L8.41014 8.41011L8.41014 -9.23572e-05Z" fill="#F6D7C4"/>
<rect x="8.87738" width="16.8204" height="0.934466" transform="rotate(90 8.87738 0)" fill="#DFA288"/>
<rect x="-6.10352e-05" y="7.94312" width="16.8204" height="0.934466" fill="#DFA288"/>
<path d="M5.50788 2.9024C5.37772 2.77224 5.2232 2.66899 5.05313 2.59855C4.88307 2.52811 4.7008 2.49185 4.51673 2.49185C4.33265 2.49185 4.15038 2.52811 3.98032 2.59855C3.81026 2.66899 3.65574 2.77224 3.52558 2.9024C3.39542 3.03256 3.29217 3.18709 3.22172 3.35715C3.15128 3.52721 3.11503 3.70948 3.11503 3.89355C3.11503 4.07763 3.15128 4.2599 3.22172 4.42996C3.29217 4.60002 3.39542 4.75455 3.52558 4.88471L4.51673 3.89355L5.50788 2.9024Z" fill="#383547"/>
<path d="M5.50788 13.9182C5.37772 14.0483 5.2232 14.1516 5.05313 14.222C4.88307 14.2924 4.7008 14.3287 4.51673 14.3287C4.33265 14.3287 4.15038 14.2924 3.98032 14.222C3.81026 14.1516 3.65574 14.0483 3.52558 13.9182C3.39542 13.788 3.29217 13.6335 3.22172 13.4634C3.15128 13.2933 3.11503 13.1111 3.11503 12.927C3.11503 12.7429 3.15128 12.5607 3.22172 12.3906C3.29217 12.2205 3.39542 12.066 3.52558 11.9359L4.51673 12.927L5.50788 13.9182Z" fill="#383547"/>
<path d="M11.2703 2.9024C11.4005 2.77224 11.555 2.66899 11.7251 2.59855C11.8951 2.52811 12.0774 2.49185 12.2615 2.49185C12.4455 2.49185 12.6278 2.52811 12.7979 2.59855C12.9679 2.66899 13.1225 2.77224 13.2526 2.9024C13.3828 3.03256 13.486 3.18709 13.5565 3.35715C13.6269 3.52721 13.6632 3.70948 13.6632 3.89355C13.6632 4.07763 13.6269 4.2599 13.5565 4.42996C13.486 4.60002 13.3828 4.75455 13.2526 4.88471L12.2615 3.89355L11.2703 2.9024Z" fill="#383547"/>
<path d="M11.3126 13.9182C11.4428 14.0483 11.5973 14.1516 11.7674 14.222C11.9374 14.2924 12.1197 14.3287 12.3038 14.3287C12.4878 14.3287 12.6701 14.2924 12.8402 14.222C13.0102 14.1516 13.1648 14.0483 13.2949 13.9182C13.4251 13.788 13.5283 13.6335 13.5988 13.4634C13.6692 13.2933 13.7055 13.1111 13.7055 12.927C13.7055 12.7429 13.6692 12.5607 13.5988 12.3906C13.5283 12.2205 13.4251 12.066 13.2949 11.9359L12.3038 12.927L11.3126 13.9182Z" fill="#383547"/>
</g>
<path d="M3.52532 4.88471C3.65548 5.01487 3.81001 5.11811 3.98007 5.18856C4.15013 5.259 4.3324 5.29525 4.51648 5.29525C4.70055 5.29526 4.88282 5.259 5.05288 5.18856C5.22295 5.11811 5.37747 5.01487 5.50763 4.88471C5.63779 4.75455 5.74104 4.60002 5.81148 4.42996C5.88192 4.2599 5.91818 4.07763 5.91818 3.89355C5.91818 3.70948 5.88192 3.52721 5.81148 3.35715C5.74104 3.18709 5.63779 3.03256 5.50763 2.9024L4.51648 3.89355L3.52532 4.88471Z" fill="#E8A092"/>
<path d="M3.52532 11.9359C3.65548 11.8057 3.81001 11.7024 3.98007 11.632C4.15013 11.5616 4.3324 11.5253 4.51648 11.5253C4.70055 11.5253 4.88282 11.5616 5.05288 11.632C5.22295 11.7024 5.37747 11.8057 5.50763 11.9359C5.63779 12.066 5.74104 12.2205 5.81148 12.3906C5.88192 12.5607 5.91818 12.7429 5.91818 12.927C5.91818 13.1111 5.88192 13.2933 5.81148 13.4634C5.74104 13.6335 5.63779 13.788 5.50763 13.9182L4.51648 12.927L3.52532 11.9359Z" fill="#E8A092"/>
<path d="M13.2526 4.88471C13.1224 5.01487 12.9679 5.11811 12.7978 5.18856C12.6278 5.259 12.4455 5.29525 12.2614 5.29525C12.0773 5.29526 11.8951 5.259 11.725 5.18856C11.5549 5.11811 11.4004 5.01487 11.2703 4.88471C11.1401 4.75455 11.0369 4.60002 10.9664 4.42996C10.896 4.2599 10.8597 4.07763 10.8597 3.89355C10.8597 3.70948 10.896 3.52721 10.9664 3.35715C11.0369 3.18709 11.1401 3.03256 11.2703 2.9024L12.2614 3.89355L13.2526 4.88471Z" fill="#E8A092"/>
<path d="M13.295 11.9359C13.1648 11.8057 13.0103 11.7024 12.8402 11.632C12.6702 11.5616 12.4879 11.5253 12.3038 11.5253C12.1198 11.5253 11.9375 11.5616 11.7674 11.632C11.5974 11.7024 11.4428 11.8057 11.3127 11.9359C11.1825 12.066 11.0793 12.2205 11.0088 12.3906C10.9384 12.5607 10.9021 12.7429 10.9021 12.927C10.9021 13.1111 10.9384 13.2933 11.0088 13.4634C11.0793 13.6335 11.1825 13.788 11.3127 13.9182L12.3038 12.927L13.295 11.9359Z" fill="#E8A092"/>
</svg>
