<svg width="114" height="115" viewBox="0 0 114 115" fill="none" xmlns="http://www.w3.org/2000/svg">
  <path d="M51.6562 89.9106C72.3152 89.9106 89.0625 73.1633 89.0625 52.5044C89.0625 31.8455 72.3152 15.0981 51.6562 15.0981C30.9973 15.0981 14.25 31.8455 14.25 52.5044C14.25 73.1633 30.9973 89.9106 51.6562 89.9106Z" stroke="#EEB250" stroke-width="6" stroke-linecap="round" stroke-linejoin="round"/>
  <path d="M78.1049 78.9581L99.7474 100.601" stroke="#EEB250" stroke-width="6" stroke-linecap="round" stroke-linejoin="round"/>
  <path d="M54.5111 58.5468V57.9139C54.5111 53.0456 61.5702 51.0982 61.5702 44.4286C61.5702 39.3655 57.7242 35.5195 51.8335 35.5195C46.7705 35.5195 43.7034 38.3919 42.389 42.3839C42.2916 42.7247 42.4376 42.9681 42.7784 43.1142L46.9165 44.5747C47.2573 44.7207 47.5494 44.5747 47.6955 44.1852C48.377 42.0918 49.6915 41.1181 51.7362 41.1181C53.9269 41.1181 55.4361 42.53 55.4361 44.7207C55.4361 48.7128 48.5231 51.293 48.5231 57.5245V58.5468C48.5231 58.8876 48.7665 59.131 49.1073 59.131H53.9269C54.2677 59.131 54.5111 58.8876 54.5111 58.5468ZM51.6388 71.2045C53.9756 71.2045 55.8743 69.3059 55.8743 66.9204C55.8743 64.5836 53.9756 62.6849 51.6388 62.6849C49.2533 62.6849 47.3547 64.5836 47.3547 66.9204C47.3547 69.3059 49.2533 71.2045 51.6388 71.2045Z" fill="#EEB250"/>
</svg>
