<svg width="94" height="95" viewBox="0 0 94 95" fill="none" xmlns="http://www.w3.org/2000/svg">
  <path fill-rule="evenodd" clip-rule="evenodd" d="M88.4922 61.9107V9.10986C88.4922 4.55435 84.786 0.848145 80.2305 0.848145H19.4609C14.9054 0.848145 11.1992 4.55435 11.1992 9.10986V12.0474H8.26172C3.70621 12.0474 0 15.7536 0 20.3091C0 24.8646 3.70621 28.5708 8.26172 28.5708H11.1992V39.5864H8.26172C3.70621 39.5864 0 43.2926 0 47.8481C0 52.4037 3.70621 56.1099 8.26172 56.1099H11.1992V67.1255H8.26172C3.70621 67.1255 0 70.8317 0 75.3872C0 79.9427 3.70621 83.6489 8.26172 83.6489H11.1992V86.4028C11.1992 88.5977 12.0432 90.6892 13.5757 92.2923C15.1513 93.9405 17.2415 94.8481 19.4609 94.8481H74.7227C85.3522 94.8481 94 86.1181 94 75.3872C94 70.1469 91.8971 65.3891 88.4922 61.9107ZM8.26172 23.063C6.74322 23.063 5.50781 21.8276 5.50781 20.3091C5.50781 18.7906 6.74322 17.5552 8.26172 17.5552H13.9531C15.4716 17.5552 16.707 18.7906 16.707 20.3091C16.707 21.8276 15.4716 23.063 13.9531 23.063H8.26172ZM8.26172 50.6021C6.74322 50.6021 5.50781 49.3666 5.50781 47.8481C5.50781 46.3296 6.74322 45.0942 8.26172 45.0942H13.9531C15.4716 45.0942 16.707 46.3296 16.707 47.8481C16.707 49.3666 15.4716 50.6021 13.9531 50.6021H8.26172ZM13.9531 78.1411H8.26172C6.74322 78.1411 5.50781 76.9057 5.50781 75.3872C5.50781 73.8687 6.74322 72.6333 8.26172 72.6333H13.9531C15.4716 72.6333 16.707 73.8687 16.707 75.3872C16.707 76.9057 15.4716 78.1411 13.9531 78.1411ZM19.4609 89.3403C17.994 89.3403 16.707 87.9676 16.707 86.4028V83.1753C19.9124 82.0384 22.2148 78.9774 22.2148 75.3872C22.2148 71.797 19.9124 68.736 16.707 67.5992V55.6362C19.9124 54.4994 22.2148 51.4383 22.2148 47.8481C22.2148 44.258 19.9124 41.1969 16.707 40.0601V28.0971C19.9124 26.9603 22.2148 23.8993 22.2148 20.3091C22.2148 16.7189 19.9124 13.6578 16.707 12.521V9.10986C16.707 7.59136 17.9424 6.35596 19.4609 6.35596H80.2305C81.749 6.35596 82.9844 7.59136 82.9844 9.10986V57.9724C80.4791 56.7791 77.6776 56.1099 74.7227 56.1099C64.0931 56.1099 55.4453 64.7577 55.4453 75.3872C55.4453 80.8546 57.6912 85.8017 61.2994 89.3403H19.4609ZM74.7227 89.3403C67.1301 89.3403 60.9531 83.0811 60.9531 75.3872C60.9531 67.7947 67.1301 61.6177 74.7227 61.6177C82.3152 61.6177 88.4922 67.7947 88.4922 75.3872C88.4922 83.0811 82.3152 89.3403 74.7227 89.3403ZM74.7227 23.063H58.1992C56.6783 23.063 55.4453 24.296 55.4453 25.8169C55.4453 27.3378 56.6783 28.5708 58.1992 28.5708H74.7227C76.2435 28.5708 77.4766 27.3378 77.4766 25.8169C77.4766 24.296 76.2435 23.063 74.7227 23.063ZM58.1992 45.0942H74.7227C76.2435 45.0942 77.4766 46.3273 77.4766 47.8481C77.4766 49.369 76.2435 50.6021 74.7227 50.6021H58.1992C56.6783 50.6021 55.4453 49.369 55.4453 47.8481C55.4453 46.3273 56.6783 45.0942 58.1992 45.0942ZM80.2305 72.6333H77.4766V69.8794C77.4766 68.3585 76.2435 67.1255 74.7227 67.1255C73.2018 67.1255 71.9688 68.3585 71.9688 69.8794V75.3872C71.9688 76.9081 73.2018 78.1411 74.7227 78.1411H80.2305C81.7514 78.1411 82.9844 76.9081 82.9844 75.3872C82.9844 73.8663 81.7514 72.6333 80.2305 72.6333ZM45.0527 18.362C46.128 17.2863 47.8718 17.2863 48.9471 18.3618C50.0226 19.4373 50.0226 21.1809 48.9471 22.2563L37.9315 33.272C37.3939 33.8099 36.6891 34.0787 35.9843 34.0787C35.2795 34.0787 34.5746 33.8099 34.0371 33.2722L27.7549 26.9899C26.6794 25.9145 26.6794 24.1709 27.7549 23.0954C28.8304 22.0199 30.5741 22.0199 31.6494 23.0954L35.9843 27.4302L45.0527 18.362ZM48.9471 40.393C47.8718 39.3175 46.128 39.3175 45.0527 40.3932L35.9843 49.4614L31.6494 45.1266C30.5741 44.0511 28.8304 44.0511 27.7549 45.1266C26.6794 46.2021 26.6794 47.9457 27.7549 49.0212L34.0371 55.3034C34.5746 55.8411 35.2795 56.1099 35.9843 56.1099C36.6891 56.1099 37.3939 55.8411 37.9315 55.3032L48.9471 44.2876C50.0226 43.2121 50.0226 41.4685 48.9471 40.393ZM45.0527 62.4245C46.128 61.3488 47.8718 61.3488 48.9471 62.4243C50.0226 63.4998 50.0226 65.2433 48.9471 66.3188L37.9315 77.3345C37.3939 77.8724 36.6891 78.1412 35.9843 78.1412C35.2795 78.1412 34.5746 77.8724 34.0371 77.3347L27.7549 71.0524C26.6794 69.977 26.6794 68.2334 27.7549 67.1579C28.8304 66.0824 30.5741 66.0824 31.6494 67.1579L35.9843 71.4927L45.0527 62.4245Z" fill="#77C5D5"/>
</svg>
