<svg width="136" height="137" viewBox="0 0 136 137" fill="none" xmlns="http://www.w3.org/2000/svg">
  <path d="M60.8926 107.846L61.3493 107.805C63.5654 107.608 65.2027 105.659 65.0064 103.451L63.8074 89.9608C63.6111 87.7526 61.6555 86.122 59.4395 86.3188L58.9828 86.3593C56.7668 86.556 55.1294 88.5056 55.3257 90.7137L56.5248 104.204C56.7211 106.412 58.6766 108.042 60.8926 107.846Z" stroke="#77C5D5" stroke-width="6" stroke-linecap="round" stroke-linejoin="round"/>
  <path d="M86.183 94.2843L86.6397 94.2438C88.8555 94.047 90.4927 92.0975 90.2964 89.8894L89.4731 80.6254C89.2768 78.4173 87.3214 76.7868 85.1056 76.9835L84.6489 77.024C82.4331 77.2207 80.7959 79.1702 80.9922 81.3784L81.8156 90.6423C82.0118 92.8505 83.9672 94.481 86.183 94.2843Z" stroke="#77C5D5" stroke-width="6" stroke-linecap="round" stroke-linejoin="round"/>
  <path d="M84.3021 67.2212L97.2784 78.0482C98.095 78.7295 98.6074 79.7059 98.7036 80.7635C98.7997 81.8211 98.4716 82.8738 97.7912 83.6912L97.4865 84.0543C96.7995 84.8661 95.818 85.3736 94.7569 85.4657C93.6958 85.5578 92.6416 85.227 91.825 84.5456L89.6163 82.7027" stroke="#77C5D5" stroke-width="6" stroke-linecap="round" stroke-linejoin="round"/>
  <path d="M92.0624 62.6527L99.5918 68.9349C100.408 69.6163 100.921 70.5925 101.017 71.6501C101.113 72.7077 100.785 73.7603 100.105 74.5777L99.8 74.9407C99.113 75.7525 98.1315 76.26 97.0705 76.3521C96.0095 76.4442 94.9553 76.1133 94.1387 75.432L87.7136 70.0712" stroke="#77C5D5" stroke-width="6" stroke-linecap="round" stroke-linejoin="round"/>
  <path d="M87.2402 58.632L95.4226 65.4592C96.2392 66.1405 97.2935 66.4714 98.3546 66.3793C99.4157 66.2872 100.397 65.7797 101.084 64.9678L101.389 64.6048C102.049 63.7852 102.36 62.7404 102.257 61.6947C102.153 60.649 101.642 59.6858 100.834 59.0117L86.7783 47.2841L72.1695 49.8678" stroke="#77C5D5" stroke-width="6" stroke-linecap="round" stroke-linejoin="round"/>
  <path d="M69.3902 105.227L69.8469 105.186C72.0633 104.989 73.7009 103.04 73.5046 100.832L71.5497 78.8408C71.3534 76.6326 69.3975 75.002 67.1811 75.1987L66.7244 75.2392C64.508 75.4359 62.8704 77.3855 63.0667 79.5938L65.0216 101.585C65.2179 103.793 67.1738 105.423 69.3902 105.227Z" stroke="#77C5D5" stroke-width="6" stroke-linecap="round" stroke-linejoin="round"/>
  <path d="M77.6153 99.8622L78.0721 99.8217C80.2884 99.6249 81.926 97.6753 81.7297 95.4671L79.7748 73.4763C79.5785 71.268 77.6227 69.6374 75.4063 69.8341L74.9495 69.8747C72.7331 70.0714 71.0955 72.021 71.2918 74.2292L73.2467 96.2201C73.443 98.4283 75.3989 100.059 77.6153 99.8622Z" stroke="#77C5D5" stroke-width="6" stroke-linecap="round" stroke-linejoin="round"/>
  <path d="M96.7097 8.75944L73.0979 37.5932L56.7137 39.5004C54.1726 39.7935 51.8398 41.0451 50.1939 42.9984L45.1936 48.956C44.1929 50.1246 43.6894 51.6365 43.7906 53.1694L45.401 73.2616C45.4609 73.9627 45.6593 74.645 45.9848 75.2692C46.3103 75.8934 46.7564 76.4472 47.2975 76.8987C47.8386 77.3502 48.464 77.6904 49.1376 77.8998C49.8113 78.1092 50.5198 78.1837 51.2226 78.1189C51.9178 78.0583 52.5942 77.8616 53.2131 77.5398C53.8319 77.2181 54.3811 76.7778 54.8291 76.2441C55.277 75.7103 55.615 75.0937 55.8235 74.4296C56.032 73.7655 56.1071 73.067 56.0443 72.374L55.0812 61.2706C55.0941 59.7928 55.5578 58.3538 56.4108 57.1448C57.4562 55.4895 58.8544 54.084 60.5059 53.0282" stroke="#77C5D5" stroke-width="6" stroke-linecap="round" stroke-linejoin="round"/>
  <path d="M22.9732 97.3154L32.6582 85.7761C33.5621 84.6834 34.1703 83.3782 34.4247 81.9849C34.6792 80.5916 34.5715 79.1568 34.1119 77.8172V77.8172C33.6451 76.4667 33.5363 75.0187 33.7962 73.6136C34.0561 72.2085 34.6757 70.894 35.595 69.7978L43.8304 59.9855" stroke="#77C5D5" stroke-width="6" stroke-linecap="round" stroke-linejoin="round"/>
  <path d="M34.5717 130.246L56.3909 104.366" stroke="#77C5D5" stroke-width="6" stroke-linecap="round" stroke-linejoin="round"/>
  <path d="M86.9899 58.4195L68.7542 60.8271" stroke="#77C5D5" stroke-width="6" stroke-linecap="round" stroke-linejoin="round"/>
  <path d="M105.483 48.9972L99.0553 56.6562" stroke="#77C5D5" stroke-width="6" stroke-linecap="round" stroke-linejoin="round"/>
</svg>
