<svg width="125" height="77" viewBox="0 0 125 77" fill="none" xmlns="http://www.w3.org/2000/svg">
  <path d="M108.147 27.1908H27.9754C21.5489 27.1908 16.304 21.9459 16.304 15.5195C16.304 9.09305 21.5489 3.84814 27.9754 3.84814H108.061C108.493 3.84814 108.724 4.36687 108.464 4.68387C106.188 7.33514 100.338 15.8941 108.58 26.3551C108.839 26.7009 108.58 27.1908 108.147 27.1908Z" stroke="#DE6F7E" stroke-width="6" stroke-miterlimit="10"/>
  <path d="M120.568 50.5331H40.396C33.9696 50.5331 28.7247 45.2882 28.7247 38.8618C28.7247 32.4353 33.9696 27.1904 40.396 27.1904H120.482C120.914 27.1904 121.144 27.7092 120.885 28.0262C118.608 30.6774 112.758 39.2364 121 49.6974C121.26 50.0432 121 50.5331 120.568 50.5331Z" stroke="#DE6F7E" stroke-width="6" stroke-miterlimit="10"/>
  <path d="M108.147 73.8481H27.9754C21.5489 73.8481 16.304 68.6032 16.304 62.1768C16.304 55.7503 21.5489 50.5054 27.9754 50.5054H108.061C108.493 50.5054 108.724 51.0242 108.464 51.3412C106.188 53.9924 100.338 62.5514 108.58 73.0124C108.839 73.3582 108.58 73.8481 108.147 73.8481Z" stroke="#DE6F7E" stroke-width="6" stroke-miterlimit="10"/>
  <path d="M47.387 13.8205H66.1188V38.8635L56.7529 33.6762L47.387 38.8635V13.8205Z" fill="white" stroke="#DE6F7E" stroke-width="6"/>
  <path d="M4.48861 73.8469H0.540527" stroke="#DE6F7E" stroke-width="6" stroke-miterlimit="10"/>
  <path d="M8.46558 73.8469H27.9754" stroke="#DE6F7E" stroke-width="6" stroke-miterlimit="10"/>
  <path d="M72.4418 62.2046H77.8884" stroke="#DE6F7E" stroke-width="6" stroke-miterlimit="10"/>
  <path d="M70.8279 13.8208H98.8679" stroke="#DE6F7E" stroke-width="6" stroke-miterlimit="10"/>
  <path d="M33.1915 13.8208H38.667" stroke="#DE6F7E" stroke-width="6" stroke-miterlimit="10"/>
  <path d="M66.2746 62.2046H55.9865" stroke="#DE6F7E" stroke-width="6" stroke-miterlimit="10"/>
</svg>


