<svg width="169" height="22" viewBox="0 0 169 22" fill="none" xmlns="http://www.w3.org/2000/svg">
<path d="M40.5298 4.59668H37.8392C37.0257 4.59668 36.4 4.84697 36.0245 5.66042L30.8936 17.3616H34.5228C34.5228 17.3616 35.1485 15.7973 35.2737 15.4218C35.6491 15.4218 39.2158 15.4218 39.7164 15.4218C39.8415 15.8598 40.1544 17.299 40.1544 17.299H43.4082L40.5298 4.59668ZM36.2748 12.7938C36.5877 12.0429 37.6514 9.22709 37.6514 9.22709C37.6514 9.28966 37.9643 8.47621 38.0895 8.0382L38.3398 9.16452C38.3398 9.16452 39.0281 12.2306 39.1532 12.8563H36.2748V12.7938Z" fill="#528CBE"/>
<path d="M31.1444 13.1694C31.1444 15.7975 28.7667 17.5495 25.0748 17.5495C23.5105 17.5495 22.0088 17.2367 21.1953 16.8612L21.6959 13.9829L22.1339 14.1706C23.2602 14.6712 24.0111 14.8589 25.3877 14.8589C26.3889 14.8589 27.4526 14.4834 27.4526 13.6074C27.4526 13.0443 27.0146 12.6688 25.638 12.0431C24.324 11.4174 22.5719 10.4162 22.5719 8.60158C22.5719 6.09865 25.0123 4.40918 28.4538 4.40918C29.7678 4.40918 30.8941 4.65947 31.5824 4.97234L31.0819 7.72555L30.8316 7.47526C30.2058 7.22497 29.3924 6.97468 28.2035 6.97468C26.8895 7.03725 26.2637 7.60041 26.2637 8.10099C26.2637 8.66415 27.0146 9.10216 28.2035 9.66532C30.2058 10.6039 31.1444 11.6677 31.1444 13.1694Z" fill="#528CBE"/>
<path d="M0.608398 4.72197L0.670972 4.47168H6.05226C6.80313 4.47168 7.36629 4.72197 7.55401 5.53542L8.7429 11.167C7.55401 8.16349 4.8008 5.72314 0.608398 4.72197Z" fill="#F9B50B"/>
<path d="M16.3141 4.59675L10.8703 17.2991H7.17846L4.0498 6.66167C6.30244 8.10085 8.17963 10.3535 8.86793 11.9178L9.24337 13.2318L12.6223 4.53418H16.3141V4.59675Z" fill="#528CBE"/>
<path d="M17.7535 4.53418H21.1951L19.005 17.2991H15.5635L17.7535 4.53418Z" fill="#528CBE"/>
<path d="M87.8238 3.0925L79.2246 3.12207L79.4852 18.865L88.0844 18.8354L87.8238 3.0925Z" fill="#FF5F00"/>
<path d="M79.7899 11.0257C79.7367 7.82374 81.1711 4.97865 83.4178 3.1332C81.722 1.80245 79.5959 1.00222 77.2913 1.01012C71.8314 1.02882 67.4886 5.52672 67.5806 11.0675C67.6727 16.6084 72.1645 21.076 77.6244 21.0573C79.9291 21.0494 82.0283 20.2347 83.6797 18.8925C81.3724 17.0905 79.8431 14.2277 79.7899 11.0257Z" fill="#EB001B"/>
<path d="M99.7275 10.8908C99.8195 16.4316 95.4767 20.9295 90.0169 20.9482C87.7122 20.9561 85.5861 20.1559 83.8903 18.8251C86.1644 16.9796 87.5714 14.1346 87.5182 10.9326C87.465 7.73061 85.9362 4.89567 83.6284 3.06581C85.2798 1.7236 87.379 0.908907 89.6837 0.901014C95.1436 0.882315 99.6359 5.3778 99.7275 10.8908Z" fill="#F79E1B"/>
<path d="M163.817 4.53418H155.252C155.751 7.36164 158.495 10.0228 161.489 10.0228H168.308C168.391 9.77331 168.391 9.3575 168.391 9.10802C168.391 6.6132 166.312 4.53418 163.817 4.53418Z" fill="url(#paint0_linear_1992_14276)"/>
<path d="M156 10.5215V17.4238H160.158V13.7647H163.817C165.813 13.7647 167.559 12.351 168.141 10.5215H156Z" fill="#4FAD50"/>
<path d="M141.364 4.53418V17.3409H145.023C145.023 17.3409 145.938 17.3409 146.437 16.4262C148.932 11.5197 149.68 10.0228 149.68 10.0228H150.179V17.3409H154.337V4.53418H150.678C150.678 4.53418 149.763 4.61735 149.265 5.44895C147.186 9.69015 146.021 11.8523 146.021 11.8523H145.522V4.53418H141.364Z" fill="#4FAD50"/>
<path d="M123.9 17.4239V4.61719H128.058C128.058 4.61719 129.223 4.61718 129.888 6.44672C131.551 11.27 131.718 11.9353 131.718 11.9353C131.718 11.9353 132.05 10.7711 133.547 6.44672C134.212 4.61718 135.377 4.61719 135.377 4.61719H139.535V17.4239H135.377V10.5216H134.878L132.549 17.4239H130.72L128.391 10.5216H127.892V17.4239H123.9Z" fill="#4FAD50"/>
<defs>
<linearGradient id="paint0_linear_1992_14276" x1="155.237" y1="7.31782" x2="168.362" y2="7.31782" gradientUnits="userSpaceOnUse">
<stop stop-color="#27B1E6"/>
<stop offset="1" stop-color="#148ACA"/>
</linearGradient>
</defs>
</svg>
